<svg width="25" height="31" viewBox="0 0 33 31" fill="none" xmlns="http://www.w3.org/2000/svg">
<path d="M30.0347 7.81709C28.6355 5.41709 26.7364 3.51709 24.3377 2.11709C21.9389 0.71709 19.3403 0.0170898 16.4418 0.0170898C13.5433 0.0170898 10.9447 0.71709 8.54594 2.11709C6.14719 3.51709 4.24818 5.41709 2.84891 7.81709C1.44964 10.2171 0.75 12.8171 0.75 15.7171C0.75 19.1171 1.74948 22.2171 3.74844 24.9171C5.74739 27.6171 8.34604 29.5171 11.5444 30.6171C11.9442 30.7171 12.1441 30.6171 12.344 30.5171C12.5438 30.3171 12.6438 30.1171 12.6438 29.9171C12.6438 29.9171 12.6438 29.5171 12.6438 28.8171C12.6438 28.1171 12.6438 27.5171 12.6438 27.0171L12.1441 27.1171C11.8442 27.2171 11.4444 27.2171 11.0446 27.2171C10.5449 27.2171 10.1451 27.1171 9.64536 27.1171C9.14562 27.0171 8.74583 26.8171 8.24609 26.5171C7.8463 26.2171 7.54646 25.8171 7.34656 25.2171L7.14666 24.7171C7.04672 24.4171 6.74687 24.0171 6.54698 23.7171C6.24713 23.3171 5.94729 23.1171 5.64745 22.9171L5.5475 22.8171C5.44755 22.7171 5.3476 22.6171 5.24765 22.6171C5.14771 22.5171 5.14771 22.4171 5.04776 22.3171C5.04776 22.2171 5.04776 22.1171 5.14771 22.1171C5.24765 22.0171 5.44755 22.0171 5.74739 22.0171L6.14719 22.1171C6.44703 22.2171 6.74687 22.3171 7.14666 22.6171C7.54646 22.9171 7.8463 23.2171 8.14614 23.7171C8.44599 24.3171 8.84578 24.7171 9.24557 25.0171C9.64536 25.3171 10.1451 25.4171 10.5449 25.4171C10.9447 25.4171 11.3445 25.4171 11.7443 25.3171C12.0441 25.2171 12.344 25.1171 12.6438 25.0171C12.7437 24.1171 13.1435 23.4171 13.6433 22.9171C12.8437 22.8171 12.1441 22.7171 11.5444 22.5171C10.9447 22.3171 10.245 22.1171 9.64536 21.7171C8.94573 21.3171 8.44599 20.9171 8.0462 20.3171C7.6464 19.8171 7.24661 19.0171 6.94677 18.1171C6.64692 17.2171 6.54698 16.2171 6.54698 15.0171C6.54698 13.3171 7.04672 11.9171 8.14614 10.8171C7.6464 9.61709 7.6464 8.21709 8.24609 6.61709C8.64588 6.51709 9.24557 6.61709 10.0452 6.91709C10.8447 7.21709 11.3445 7.51709 11.7443 7.71709C12.1441 7.91709 12.4439 8.11709 12.6438 8.31709C13.9431 7.91709 15.2424 7.81709 16.5418 7.81709C17.8411 7.81709 19.2404 8.01709 20.4397 8.31709L21.2393 7.81709C21.7391 7.51709 22.4387 7.21709 23.1383 6.91709C23.838 6.61709 24.4376 6.61709 24.8374 6.71709C25.4371 8.21709 25.5371 9.61709 25.0373 10.9171C26.1368 12.1171 26.6365 13.5171 26.6365 15.1171C26.6365 16.3171 26.5366 17.3171 26.2367 18.2171C25.9369 19.1171 25.637 19.8171 25.1373 20.4171C24.7375 20.9171 24.1378 21.4171 23.4382 21.8171C22.7385 22.2171 22.1388 22.4171 21.5392 22.6171C20.9395 22.8171 20.2398 22.9171 19.4403 23.0171C20.1399 23.6171 20.5397 24.6171 20.5397 25.9171V30.2171C20.5397 30.4171 20.6396 30.7171 20.8395 30.8171C21.0394 31.0171 21.2393 31.0171 21.6391 30.9171C24.8374 29.8171 27.4361 28.0171 29.435 25.2171C31.434 22.5171 32.4335 19.4171 32.4335 16.0171C32.1336 12.8171 31.434 10.2171 30.0347 7.81709Z" fill="white"/>
</svg>
