<svg width="25" height="28" viewBox="0 0 28 28" fill="none" xmlns="http://www.w3.org/2000/svg">
<g clip-path="url(#clip0_7535_48037)">
<path d="M27.9729 14.262C27.9729 13.1149 27.8799 12.2778 27.6784 11.4097H14.5791V16.5873H22.2681C22.1131 17.874 21.276 19.8118 19.4157 21.1139L19.3897 21.2873L23.5314 24.4958L23.8184 24.5245C26.4537 22.0906 27.9729 18.5096 27.9729 14.262Z" fill="#4285F4"/>
<path d="M14.579 27.904C18.3459 27.904 21.5083 26.6637 23.8182 24.5245L19.4156 21.1139C18.2375 21.9356 16.6562 22.5091 14.579 22.5091C10.8895 22.5091 7.75809 20.0754 6.64183 16.7114L6.47821 16.7253L2.17155 20.0583L2.11523 20.2148C4.40952 24.7724 9.12218 27.904 14.579 27.904Z" fill="#34A853"/>
<path d="M6.64172 16.7113C6.34718 15.8432 6.17672 14.913 6.17672 13.9519C6.17672 12.9907 6.34718 12.0606 6.62622 11.1925L6.61842 11.0076L2.25779 7.62109L2.11512 7.68896C1.16953 9.58024 0.626953 11.7041 0.626953 13.9519C0.626953 16.1997 1.16953 18.3234 2.11512 20.2147L6.64172 16.7113Z" fill="#FBBC05"/>
<path d="M14.579 5.3947C17.1988 5.3947 18.966 6.52635 19.9737 7.47205L23.9112 3.6275C21.4929 1.37969 18.3459 0 14.579 0C9.12218 0 4.40952 3.1314 2.11523 7.68899L6.62633 11.1925C7.75809 7.82857 10.8895 5.3947 14.579 5.3947Z" fill="#EB4335"/>
</g>
<defs>
<clipPath id="clip0_7535_48037">
<rect width="27.3616" height="28" fill="white" transform="translate(0.625977)"/>
</clipPath>
</defs>
</svg>
