<svg width="60" height="51" viewBox="0 0 70 51" fill="none" xmlns="http://www.w3.org/2000/svg">
<g clip-path="url(#clip0_7535_48017)">
<path d="M35.1604 5.52307C19.3943 4.99542 15.4155 14.3265 14.4858 17.6928C14.4768 17.7516 14.4872 17.8117 14.5157 17.8644C14.5441 17.9172 14.5891 17.9599 14.6443 17.9865C14.6994 18.0131 14.7618 18.0222 14.8226 18.0125C14.8834 18.0028 14.9395 17.9749 14.9828 17.9326C17.0614 15.3452 19.5317 14.6341 22.3148 15.221L25.6885 24.1825C25.0746 24.3963 24.5374 24.776 24.1409 25.2763C23.7443 25.7766 23.5052 26.3763 23.452 27.0041C23.452 27.0577 23.452 27.1085 23.452 27.1593L12.1675 27.8788C12.0806 27.5979 11.9196 27.3437 11.7002 27.1409C11.4809 26.9381 11.2108 26.7937 10.9163 26.722L11.1326 12.4191C11.3955 12.3677 11.6432 12.2605 11.8579 12.1053C12.0725 11.9501 12.2488 11.7508 12.3738 11.5218C12.4989 11.2928 12.5697 11.0399 12.581 10.7812C12.5923 10.5226 12.544 10.2648 12.4394 10.0264L23.7093 2.45595L23.7707 2.49264C24.1254 2.7195 24.5476 2.82756 24.9722 2.80019C31.091 2.36002 34.108 3.42377 35.5522 4.36338C35.6747 4.43815 35.768 4.55023 35.8171 4.68187C35.8663 4.81352 35.8686 4.95723 35.8236 5.09028C35.7787 5.22333 35.6891 5.33812 35.569 5.4165C35.4489 5.49488 35.3051 5.53238 35.1604 5.52307ZM41.5394 29.2417C34.7424 22.8253 28.5154 17.1087 23.3088 15.4891L26.5246 24.0047C27.0199 23.9512 27.5213 24.0044 27.9927 24.1605C28.4641 24.3166 28.8937 24.5718 29.2506 24.9076C29.6074 25.2434 29.8826 25.6514 30.0563 26.1023C30.23 26.5532 30.2978 27.0356 30.2549 27.5148L41.4488 29.4364C41.4724 29.437 41.4957 29.4308 41.5157 29.4187C41.5357 29.4065 41.5515 29.3889 41.5612 29.3681C41.5709 29.3473 41.574 29.3242 41.5701 29.3017C41.5662 29.2792 41.5555 29.2583 41.5394 29.2417ZM2.99081 14.5523C2.914 14.5844 2.84524 14.6321 2.78916 14.6921C2.73309 14.7521 2.69102 14.823 2.6658 14.9C2.64058 14.9771 2.63279 15.0585 2.64297 15.1387C2.65314 15.2189 2.68104 15.296 2.72478 15.3649L9.67966 26.8489L10.0773 26.7502L10.2965 12.3937C9.89854 12.3003 9.54509 12.0795 9.29377 11.7673L2.99081 14.5523ZM10.7964 8.90902L13.0241 0.92381C8.17116 2.56035 4.25374 7.30351 2.62538 13.2374C2.61144 13.296 2.61436 13.3572 2.63381 13.4143C2.65326 13.4714 2.68851 13.5224 2.73575 13.5616C2.78299 13.6008 2.84043 13.6268 2.90187 13.6368C2.96331 13.6468 3.02641 13.6404 3.08436 13.6183L8.93126 11.0281C8.89352 10.8643 8.88071 10.696 8.89326 10.5286C8.93352 10.0744 9.15393 9.65266 9.50851 9.35144C9.86309 9.05021 10.3245 8.89273 10.7964 8.91184V8.90902ZM63.2723 47.1647C56.4314 43.1975 49.6987 36.9419 43.3929 31.0024C43.3754 30.9839 43.3518 30.9717 43.3262 30.9679C43.3005 30.964 43.2743 30.9687 43.2518 30.9812C43.2293 30.9937 43.2119 31.0133 43.2025 31.0366C43.193 31.0599 43.1921 31.0857 43.1999 31.1096L45.5738 40.6862H45.6118C46.2291 40.7372 46.8003 41.0225 47.1999 41.4796C47.5995 41.9367 47.7948 42.5281 47.743 43.1241C47.743 43.158 47.7283 43.189 47.7254 43.2229L63.1028 47.5089C63.1497 47.5306 63.2036 47.5334 63.2527 47.5168C63.3017 47.5001 63.3419 47.4653 63.3644 47.42C63.3869 47.3747 63.3898 47.3227 63.3726 47.2753C63.3553 47.228 63.3192 47.1892 63.2723 47.1675V47.1647ZM11.9658 9.35484L22.9287 2.00449C19.8299 0.288944 16.7603 -0.0496518 13.9625 0.644469L11.6091 9.10936C11.7382 9.17989 11.8579 9.26515 11.9658 9.3633V9.35484ZM44.3255 44.9074L40.9372 47.9547C48.2458 49.8424 57.4868 51.0247 69.1075 50.5788C69.1851 50.5878 69.2631 50.5667 69.3245 50.5201C69.3859 50.4736 69.4256 50.4054 69.435 50.3305C69.4443 50.2557 69.4224 50.1804 69.3741 50.1211C69.3259 50.0618 69.2552 50.0235 69.1777 50.0145L47.4886 43.9706C47.2736 44.3602 46.9449 44.6803 46.5432 44.8915C46.1415 45.1026 45.6846 45.1954 45.2288 45.1585C44.9147 45.1401 44.6077 45.0614 44.3255 44.9271V44.9074ZM14.1438 40.7962L10.3433 30.0148C10.0419 29.9899 9.7525 29.8893 9.50385 29.7231C9.25521 29.5568 9.05596 29.3306 8.92591 29.067C8.79586 28.8035 8.73953 28.5116 8.76252 28.2205C8.78551 27.9294 8.88702 27.6491 9.05697 27.4076L2.43828 16.4936C2.41086 16.4502 2.37033 16.416 2.32216 16.3956C2.27399 16.3752 2.22049 16.3695 2.16888 16.3794C2.11726 16.3892 2.07002 16.4141 2.03351 16.4507C1.997 16.4872 1.97298 16.5337 1.96468 16.5839C0.991176 24.6311 4.12219 34.0356 14.1438 40.7962ZM31.5412 47.8503C31.6465 47.8503 31.5909 47.6585 31.4944 47.6161C30.1701 46.9925 20.818 42.3905 17.2982 34.8539C18.7112 36.6608 20.4066 38.2447 22.3236 39.5491L25.4195 30.2377C24.9427 30.0234 24.5239 29.7052 24.1961 29.3081C23.8684 28.911 23.6407 28.4459 23.531 27.9494L12.1938 28.6971C12.1344 28.9608 12.0105 29.207 11.8326 29.4151C11.6546 29.6232 11.4276 29.7872 11.1706 29.8935L15.2927 41.5524C16.006 41.987 22.1131 47.6387 31.5412 47.8531V47.8503ZM23.0252 40.0542C26.4573 42.4808 31.6026 45.2883 38.9054 47.4158L28.226 30.2659C27.7063 30.4944 27.1348 30.5914 26.5655 30.5481C26.4502 30.5345 26.336 30.5138 26.2235 30.486L23.0252 40.0542ZM28.9452 29.854L40.0543 47.6726L43.6764 44.4164C43.422 44.1322 43.2451 43.7913 43.1616 43.4245C43.0782 43.0577 43.0909 42.6766 43.1986 42.3157C43.3063 41.9548 43.5056 41.6255 43.7784 41.3578C44.0513 41.09 44.389 40.8921 44.761 40.7821L42.2907 30.8246C42.257 30.6919 42.1837 30.5716 42.0797 30.4788C41.9757 30.386 41.8458 30.3247 41.706 30.3026L30.0766 28.3077C29.8651 28.9193 29.4716 29.4571 28.9452 29.854Z" fill="url(#paint0_linear_7535_48017)"/>
<g opacity="0.15">
<path opacity="0.15" d="M26.5127 24.0044L26.6647 17.0181C25.6056 16.3944 24.4805 15.8818 23.3086 15.4888L26.5127 24.0044Z" fill="black"/>
<path opacity="0.15" d="M9.68068 26.8486L4.62896 13.8296L2.99183 14.5519C2.91502 14.5841 2.84625 14.6317 2.79018 14.6917C2.73411 14.7517 2.69204 14.8226 2.66682 14.8997C2.6416 14.9767 2.63381 15.0581 2.64398 15.1383C2.65416 15.2185 2.68206 15.2957 2.7258 15.3646L9.68068 26.8486Z" fill="black"/>
<path opacity="0.15" d="M13.9628 0.644323L11.6094 9.10921C11.6386 9.12614 11.6649 9.14871 11.6942 9.16846L16.7079 0.350873C15.7837 0.337116 14.8614 0.435708 13.9628 0.644323Z" fill="black"/>
<path opacity="0.15" d="M12.4395 10.026C12.459 10.1059 12.4727 10.1869 12.4804 10.2687L28.992 2.73773C27.6518 2.68328 26.3094 2.70778 24.9723 2.81109C24.5478 2.837 24.1261 2.72906 23.7707 2.50353L23.7093 2.45557L12.4395 10.026Z" fill="black"/>
<path opacity="0.15" d="M23.5312 27.9575L12.1941 28.6968C12.1347 28.9605 12.0108 29.2066 11.8328 29.4147C11.6548 29.6229 11.4279 29.7869 11.1709 29.8932L11.9018 31.9614L23.5956 28.1184C23.5722 28.0563 23.5488 28.0083 23.5312 27.9575Z" fill="black"/>
<path opacity="0.15" d="M12.1682 27.8786L14.7993 27.7093L11.1333 12.4048L10.917 26.7217C11.2115 26.7935 11.4816 26.9378 11.7009 27.1406C11.9203 27.3434 12.0813 27.5977 12.1682 27.8786Z" fill="black"/>
<path opacity="0.15" d="M2.62586 13.2373C2.61192 13.2959 2.61483 13.357 2.63428 13.4142C2.65373 13.4713 2.68898 13.5222 2.73622 13.5614C2.78347 13.6006 2.84091 13.6266 2.90235 13.6367C2.96378 13.6467 3.02689 13.6403 3.08484 13.6182L8.93174 11.0279C8.93174 10.98 8.93174 10.932 8.93174 10.884L3.49412 10.7373C3.15539 11.5539 2.86549 12.3886 2.62586 13.2373Z" fill="black"/>
<path opacity="0.15" d="M45.6241 40.6891C45.6709 40.6891 45.706 40.7201 45.7528 40.7257L47.2876 34.6226C45.9779 33.4149 44.6799 32.1988 43.4052 30.9968C43.3877 30.9783 43.3642 30.9661 43.3385 30.9622C43.3129 30.9584 43.2867 30.9631 43.2642 30.9756C43.2417 30.9881 43.2243 31.0077 43.2148 31.031C43.2054 31.0543 43.2045 31.0801 43.2123 31.104L45.5861 40.6806L45.6241 40.6891Z" fill="black"/>
<path opacity="0.15" d="M42.3318 45.6179L28.9453 29.8535L40.0427 47.6721L42.3318 45.6179Z" fill="black"/>
<path opacity="0.15" d="M8.76802 36.194L1.99731 16.564C1.99731 16.5809 1.96808 16.5781 1.96515 16.595C1.19629 22.938 3.04975 30.1078 8.76802 36.194Z" fill="black"/>
<path opacity="0.15" d="M47.4898 43.9985C47.2747 44.3881 46.946 44.7083 46.5444 44.9194C46.1427 45.1306 45.6858 45.2234 45.23 45.1864C44.9139 45.1592 44.6067 45.0709 44.3267 44.9269L44.0928 45.1385L62.2386 48.1068L47.4898 43.9985Z" fill="black"/>
<path opacity="0.15" d="M26.2207 30.4858L23.0254 40.054C23.7972 40.5986 24.6654 41.1629 25.6126 41.7329L26.288 30.4999L26.2207 30.4858Z" fill="black"/>
<path opacity="0.15" d="M17.752 35.751C18.8716 37.8672 22.0874 43.3694 26.9871 47.3196C28.4832 47.6443 30.0089 47.8257 31.5419 47.8614C31.5595 47.8344 31.5689 47.8031 31.5689 47.7711C31.5689 47.7392 31.5595 47.7078 31.5419 47.6808C31.5267 47.658 31.5055 47.6395 31.4805 47.6272C31.3138 47.5482 31.0244 47.4071 30.6356 47.2068C30.3432 47.0572 29.9954 46.8738 29.6036 46.6566C29.2119 46.4393 28.7763 46.191 28.3085 45.9088C28.098 45.7819 27.8788 45.6464 27.6566 45.5053C27.3847 45.336 27.107 45.1583 26.8205 44.9664C26.6451 44.8535 26.4697 44.735 26.2913 44.6109C23.3299 42.5624 19.8218 39.5602 17.752 35.751Z" fill="black"/>
<path opacity="0.15" d="M17.3018 34.8623C17.3018 34.8792 17.3836 35.0344 17.5239 35.3109C17.4509 35.1642 17.3719 35.0147 17.3018 34.8623Z" fill="black"/>
</g>
</g>
<defs>
<linearGradient id="paint0_linear_7535_48017" x1="51.6526" y1="20.0192" x2="3.88639" y2="47.8827" gradientUnits="userSpaceOnUse">
<stop stop-color="#EC008C"/>
<stop offset="1" stop-color="#2B328C"/>
</linearGradient>
<clipPath id="clip0_7535_48017">
<rect width="69" height="51" fill="white" transform="translate(0.625977)"/>
</clipPath>
</defs>
</svg>
